<?xml version="1.0" encoding="UTF-8"?>
<svg xmlns="http://www.w3.org/2000/svg" viewBox="0 0 256 256" width="256" height="256" role="img" aria-label="Sault Ste. Marie Northmen">
  <defs>
    <linearGradient id="g" x1="0" y1="0" x2="1" y2="1">
      <stop offset="0" stop-color="#0f1520"/>
      <stop offset="1" stop-color="#00b894" stop-opacity=".35"/>
    </linearGradient>
    <filter id="sh" x="-20%" y="-20%" width="140%" height="140%">
      <feDropShadow dx="0" dy="4" stdDeviation="6" flood-opacity=".45"/>
    </filter>
  </defs>
  <rect width="256" height="256" fill="#0f1520"/>
  <path d="M128 28 L200 50 L215 130 Q200 200 128 228 Q56 200 41 130 L56 50 Z" fill="url(#g)" stroke="#55efc4" stroke-width="8" filter="url(#sh)"/>
  <path d="M128 28 L200 50 L215 130 Q200 200 128 228 Q56 200 41 130 L56 50 Z" fill="none" stroke="#eafff7" stroke-width="2" opacity=".25"/>
  <g transform="translate(0,-6)"><path d="M80 140 Q128 50 176 140 L160 165 L128 150 L96 165 Z" fill="#55efc4"/><path d="M100 95 L90 70 M156 95 L166 70" stroke="#00b894" stroke-width="8" stroke-linecap="round"/></g>
  <text x="128" y="38" text-anchor="middle" font-family="Oswald, Arial Narrow, sans-serif" font-size="14" font-weight="700" fill="#55efc4" letter-spacing="2">SAULT</text>
  <text x="128" y="228" text-anchor="middle" font-family="Bebas Neue, Impact, sans-serif" font-size="26" font-weight="700" fill="#eafff7" letter-spacing="1">NORTHMEN</text>
  <text x="128" y="246" text-anchor="middle" font-family="Arial, sans-serif" font-size="10" fill="#00b894" opacity=".7">OJL</text>
</svg>
