<?xml version="1.0" encoding="UTF-8"?>
<svg xmlns="http://www.w3.org/2000/svg" viewBox="0 0 256 256" width="256" height="256" role="img" aria-label="Connecticut Shore Whales">
  <defs>
    <linearGradient id="g" x1="0" y1="0" x2="1" y2="1">
      <stop offset="0" stop-color="#1a0f18"/>
      <stop offset="1" stop-color="#6c3483" stop-opacity=".35"/>
    </linearGradient>
    <filter id="sh" x="-20%" y="-20%" width="140%" height="140%">
      <feDropShadow dx="0" dy="4" stdDeviation="6" flood-opacity=".45"/>
    </filter>
  </defs>
  <rect width="256" height="256" fill="#1a0f18"/>
  <path d="M128 28 L210 58 V140 Q210 200 128 228 Q46 200 46 140 V58 Z" fill="url(#g)" stroke="#e84393" stroke-width="8" filter="url(#sh)"/>
  <path d="M128 28 L210 58 V140 Q210 200 128 228 Q46 200 46 140 V58 Z" fill="none" stroke="#fdeef6" stroke-width="2" opacity=".25"/>
  <g transform="translate(0,-6)"><ellipse cx="118" cy="110" rx="36" ry="22" fill="#e84393"/><circle cx="148" cy="96" r="18" fill="#e84393"/><path d="M158 92l28-12v24z" fill="#6c3483"/><circle cx="146" cy="90" r="3" fill="#fdeef6"/></g>
  <text x="128" y="38" text-anchor="middle" font-family="Oswald, Arial Narrow, sans-serif" font-size="14" font-weight="700" fill="#e84393" letter-spacing="2">CONNECTICU</text>
  <text x="128" y="228" text-anchor="middle" font-family="Bebas Neue, Impact, sans-serif" font-size="30" font-weight="700" fill="#fdeef6" letter-spacing="1">WHALES</text>
  <text x="128" y="246" text-anchor="middle" font-family="Arial, sans-serif" font-size="10" fill="#6c3483" opacity=".7">NWCHA</text>
</svg>
