<?xml version="1.0" encoding="UTF-8"?>
<svg xmlns="http://www.w3.org/2000/svg" viewBox="0 0 256 256" width="256" height="256" role="img" aria-label="Los Angeles Stars">
  <defs>
    <linearGradient id="g" x1="0" y1="0" x2="1" y2="1">
      <stop offset="0" stop-color="#0a1628"/>
      <stop offset="1" stop-color="#c0c8d8" stop-opacity=".35"/>
    </linearGradient>
    <filter id="sh" x="-20%" y="-20%" width="140%" height="140%">
      <feDropShadow dx="0" dy="4" stdDeviation="6" flood-opacity=".45"/>
    </filter>
  </defs>
  <rect width="256" height="256" fill="#0a1628"/>
  <path d="M128 28 L210 58 V140 Q210 200 128 228 Q46 200 46 140 V58 Z" fill="url(#g)" stroke="#ffd700" stroke-width="8" filter="url(#sh)"/>
  <path d="M128 28 L210 58 V140 Q210 200 128 228 Q46 200 46 140 V58 Z" fill="none" stroke="#f8f9fc" stroke-width="2" opacity=".25"/>
  <g transform="translate(0,-6)"><path d="M128 48l18 42 46 5-34 32 10 45-40-24-40 24 10-45-34-32 46-5z" fill="#ffd700"/><circle cx="128" cy="118" r="48" fill="none" stroke="#c0c8d8" stroke-width="3" opacity=".4"/></g>
  <text x="128" y="38" text-anchor="middle" font-family="Oswald, Arial Narrow, sans-serif" font-size="14" font-weight="700" fill="#ffd700" letter-spacing="2">LOS</text>
  <text x="128" y="228" text-anchor="middle" font-family="Bebas Neue, Impact, sans-serif" font-size="30" font-weight="700" fill="#f8f9fc" letter-spacing="1">STARS</text>
  <text x="128" y="246" text-anchor="middle" font-family="Arial, sans-serif" font-size="10" fill="#c0c8d8" opacity=".7">PHL</text>
</svg>
