<?xml version="1.0" encoding="UTF-8"?>
<svg xmlns="http://www.w3.org/2000/svg" viewBox="0 0 256 256" width="256" height="256" role="img" aria-label="Toronto Monarchs">
  <defs>
    <linearGradient id="g" x1="0" y1="0" x2="1" y2="1">
      <stop offset="0" stop-color="#2a1f38"/>
      <stop offset="1" stop-color="#9b7ed9" stop-opacity=".35"/>
    </linearGradient>
    <filter id="sh" x="-20%" y="-20%" width="140%" height="140%">
      <feDropShadow dx="0" dy="4" stdDeviation="6" flood-opacity=".45"/>
    </filter>
  </defs>
  <rect width="256" height="256" fill="#2a1f38"/>
  <path d="M128 30 L205 75 L185 175 L128 220 L71 175 L51 75 Z" fill="url(#g)" stroke="#e4c04d" stroke-width="8" filter="url(#sh)"/>
  <path d="M128 30 L205 75 L185 175 L128 220 L71 175 L51 75 Z" fill="none" stroke="#f2ebe3" stroke-width="2" opacity=".25"/>
  <g transform="translate(0,-6)"><path d="M128 55l16 42h42l-34 28 14 42-38-24-38 24 14-42-34-28h42z" fill="#e4c04d"/><rect x="112" y="168" width="32" height="22" rx="4" fill="#9b7ed9"/></g>
  <text x="128" y="38" text-anchor="middle" font-family="Oswald, Arial Narrow, sans-serif" font-size="14" font-weight="700" fill="#e4c04d" letter-spacing="2">TORONTO</text>
  <text x="128" y="228" text-anchor="middle" font-family="Bebas Neue, Impact, sans-serif" font-size="26" font-weight="700" fill="#f2ebe3" letter-spacing="1">MONARCHS</text>
  <text x="128" y="246" text-anchor="middle" font-family="Arial, sans-serif" font-size="10" fill="#9b7ed9" opacity=".7">PHL</text>
</svg>
