<?xml version="1.0" encoding="UTF-8"?>
<svg xmlns="http://www.w3.org/2000/svg" viewBox="0 0 256 256" width="256" height="256" role="img" aria-label="Vancouver Mountaineers">
  <defs>
    <linearGradient id="g" x1="0" y1="0" x2="1" y2="1">
      <stop offset="0" stop-color="#1e3a2f"/>
      <stop offset="1" stop-color="#8d6e63" stop-opacity=".35"/>
    </linearGradient>
    <filter id="sh" x="-20%" y="-20%" width="140%" height="140%">
      <feDropShadow dx="0" dy="4" stdDeviation="6" flood-opacity=".45"/>
    </filter>
  </defs>
  <rect width="256" height="256" fill="#1e3a2f"/>
  <path d="M48 55 H208 V175 Q208 210 128 225 Q48 210 48 175 Z" fill="url(#g)" stroke="#66bb6a" stroke-width="8" filter="url(#sh)"/>
  <path d="M48 55 H208 V175 Q208 210 128 225 Q48 210 48 175 Z" fill="none" stroke="#f0fff4" stroke-width="2" opacity=".25"/>
  <g transform="translate(0,-6)"><path d="M48 175 L95 85 L128 130 L165 70 L220 175 Z" fill="#8d6e63"/><path d="M95 85 L128 55 L165 85" fill="#66bb6a"/></g>
  <text x="128" y="38" text-anchor="middle" font-family="Oswald, Arial Narrow, sans-serif" font-size="14" font-weight="700" fill="#66bb6a" letter-spacing="2">VANCOUVER</text>
  <text x="128" y="228" text-anchor="middle" font-family="Bebas Neue, Impact, sans-serif" font-size="22" font-weight="700" fill="#f0fff4" letter-spacing="1">MOUNTAINE</text>
  <text x="128" y="246" text-anchor="middle" font-family="Arial, sans-serif" font-size="10" fill="#8d6e63" opacity=".7">PHL</text>
</svg>
