<?xml version="1.0" encoding="UTF-8"?>
<svg xmlns="http://www.w3.org/2000/svg" viewBox="0 0 256 256" width="256" height="256" role="img" aria-label="Mikkeli Rapids">
  <defs>
    <linearGradient id="g" x1="0" y1="0" x2="1" y2="1">
      <stop offset="0" stop-color="#102a24"/>
      <stop offset="1" stop-color="#16a085" stop-opacity=".35"/>
    </linearGradient>
    <filter id="sh" x="-20%" y="-20%" width="140%" height="140%">
      <feDropShadow dx="0" dy="4" stdDeviation="6" flood-opacity=".45"/>
    </filter>
  </defs>
  <rect width="256" height="256" fill="#102a24"/>
  <path d="M128 28 L200 50 L215 130 Q200 200 128 228 Q56 200 41 130 L56 50 Z" fill="url(#g)" stroke="#48c9b0" stroke-width="8" filter="url(#sh)"/>
  <path d="M128 28 L200 50 L215 130 Q200 200 128 228 Q56 200 41 130 L56 50 Z" fill="none" stroke="#f0fdf9" stroke-width="2" opacity=".25"/>
  <g transform="translate(0,-6)"><path d="M55 105 Q85 85 115 100 T175 100 T220 105" fill="none" stroke="#48c9b0" stroke-width="12"/><path d="M55 130 Q85 110 115 125 T175 125 T220 130" fill="none" stroke="#16a085" stroke-width="12"/><path d="M55 155 Q85 135 115 150 T175 150 T220 155" fill="none" stroke="#f0fdf9" stroke-width="7" opacity=".45"/></g>
  <text x="128" y="38" text-anchor="middle" font-family="Oswald, Arial Narrow, sans-serif" font-size="14" font-weight="700" fill="#48c9b0" letter-spacing="2">MIKKELI</text>
  <text x="128" y="228" text-anchor="middle" font-family="Bebas Neue, Impact, sans-serif" font-size="30" font-weight="700" fill="#f0fdf9" letter-spacing="1">RAPIDS</text>
  <text x="128" y="246" text-anchor="middle" font-family="Arial, sans-serif" font-size="10" fill="#16a085" opacity=".7">FHL</text>
</svg>
