<?xml version="1.0" encoding="UTF-8"?>
<svg xmlns="http://www.w3.org/2000/svg" viewBox="0 0 256 256" width="256" height="256" role="img" aria-label="Oslo Cannons">
  <defs>
    <linearGradient id="g" x1="0" y1="0" x2="1" y2="1">
      <stop offset="0" stop-color="#221410"/>
      <stop offset="1" stop-color="#f39c12" stop-opacity=".35"/>
    </linearGradient>
    <filter id="sh" x="-20%" y="-20%" width="140%" height="140%">
      <feDropShadow dx="0" dy="4" stdDeviation="6" flood-opacity=".45"/>
    </filter>
  </defs>
  <rect width="256" height="256" fill="#221410"/>
  <path d="M128 28 L200 50 L215 130 Q200 200 128 228 Q56 200 41 130 L56 50 Z" fill="url(#g)" stroke="#e74c3c" stroke-width="8" filter="url(#sh)"/>
  <path d="M128 28 L200 50 L215 130 Q200 200 128 228 Q56 200 41 130 L56 50 Z" fill="none" stroke="#fff8f4" stroke-width="2" opacity=".25"/>
  <g transform="translate(0,-6)"><path d="M128 50l48 18v58q0 36-48 52-48-16-48-52V68z" fill="#f39c12"/><path d="M128 62l36 14v48q0 26-36 38-36-12-36-38V76z" fill="#e74c3c" opacity=".85"/><path d="M128 78 v70" stroke="#fff8f4" stroke-width="4" opacity=".4"/></g>
  <text x="128" y="38" text-anchor="middle" font-family="Oswald, Arial Narrow, sans-serif" font-size="14" font-weight="700" fill="#e74c3c" letter-spacing="2">OSLO</text>
  <text x="128" y="228" text-anchor="middle" font-family="Bebas Neue, Impact, sans-serif" font-size="26" font-weight="700" fill="#fff8f4" letter-spacing="1">CANNONS</text>
  <text x="128" y="246" text-anchor="middle" font-family="Arial, sans-serif" font-size="10" fill="#f39c12" opacity=".7">NEHL</text>
</svg>
