<?xml version="1.0" encoding="UTF-8"?>
<svg xmlns="http://www.w3.org/2000/svg" viewBox="0 0 256 256" width="256" height="256" role="img" aria-label="Pittsburgh Forge">
  <defs>
    <linearGradient id="g" x1="0" y1="0" x2="1" y2="1">
      <stop offset="0" stop-color="#0d1a22"/>
      <stop offset="1" stop-color="#3498db" stop-opacity=".35"/>
    </linearGradient>
    <filter id="sh" x="-20%" y="-20%" width="140%" height="140%">
      <feDropShadow dx="0" dy="4" stdDeviation="6" flood-opacity=".45"/>
    </filter>
  </defs>
  <rect width="256" height="256" fill="#0d1a22"/>
  <path d="M128 32 A90 90 0 1 1 127.9 32 Z" fill="url(#g)" stroke="#1abc9c" stroke-width="8" filter="url(#sh)"/>
  <path d="M128 32 A90 90 0 1 1 127.9 32 Z" fill="none" stroke="#ecf8fc" stroke-width="2" opacity=".25"/>
  <g transform="translate(0,-6)"><path d="M128 55q28 32 20 62 20 14 16 42-22 14-40 0-20-30 0-44 18-14 16-44-8-32 20-60z" fill="#1abc9c"/><path d="M128 85q12 24 0 48" fill="#3498db" opacity=".5"/></g>
  <text x="128" y="38" text-anchor="middle" font-family="Oswald, Arial Narrow, sans-serif" font-size="14" font-weight="700" fill="#1abc9c" letter-spacing="2">PITTSBURGH</text>
  <text x="128" y="228" text-anchor="middle" font-family="Bebas Neue, Impact, sans-serif" font-size="30" font-weight="700" fill="#ecf8fc" letter-spacing="1">FORGE</text>
  <text x="128" y="246" text-anchor="middle" font-family="Arial, sans-serif" font-size="10" fill="#3498db" opacity=".7">USWDL</text>
</svg>
