<?xml version="1.0" encoding="UTF-8"?>
<svg xmlns="http://www.w3.org/2000/svg" viewBox="0 0 256 256" width="256" height="256" role="img" aria-label="Wellesley Woodsmen">
  <defs>
    <linearGradient id="g" x1="0" y1="0" x2="1" y2="1">
      <stop offset="0" stop-color="#181828"/>
      <stop offset="1" stop-color="#6c5ce7" stop-opacity=".35"/>
    </linearGradient>
    <filter id="sh" x="-20%" y="-20%" width="140%" height="140%">
      <feDropShadow dx="0" dy="4" stdDeviation="6" flood-opacity=".45"/>
    </filter>
  </defs>
  <rect width="256" height="256" fill="#181828"/>
  <path d="M128 28 L210 58 V140 Q210 200 128 228 Q46 200 46 140 V58 Z" fill="url(#g)" stroke="#a29bfe" stroke-width="8" filter="url(#sh)"/>
  <path d="M128 28 L210 58 V140 Q210 200 128 228 Q46 200 46 140 V58 Z" fill="none" stroke="#f0eefc" stroke-width="2" opacity=".25"/>
  <g transform="translate(0,-6)"><path d="M128 55 v70 M95 70 l20 30 M161 70 l-20 30" stroke="#6c5ce7" stroke-width="10" stroke-linecap="round"/><path d="M78 175 Q110 105 128 95 Q146 105 178 175" fill="#a29bfe"/></g>
  <text x="128" y="38" text-anchor="middle" font-family="Oswald, Arial Narrow, sans-serif" font-size="14" font-weight="700" fill="#a29bfe" letter-spacing="2">WELLESLEY</text>
  <text x="128" y="228" text-anchor="middle" font-family="Bebas Neue, Impact, sans-serif" font-size="26" font-weight="700" fill="#f0eefc" letter-spacing="1">WOODSMEN</text>
  <text x="128" y="246" text-anchor="middle" font-family="Arial, sans-serif" font-size="10" fill="#6c5ce7" opacity=".7">CJBL</text>
</svg>
